<?xml version="1.0" encoding="us-ascii" standalone="no"?><svg xmlns="http://www.w3.org/2000/svg" xmlns:xlink="http://www.w3.org/1999/xlink" contentStyleType="text/css" height="716px" preserveAspectRatio="none" style="width:555px;height:716px;background:#FFFFFF;" version="1.1" viewBox="0 0 555 716" width="555px" zoomAndPan="magnify"><defs/><g><!--class User--><g id="elem_User"><rect codeLine="3" fill="#F1F1F1" height="241.7031" id="User" rx="2.5" ry="2.5" style="stroke:#181818;stroke-width:0.5;" width="150" x="194" y="7"/><ellipse cx="250.25" cy="23" fill="#ADD1B2" rx="11" ry="11" style="stroke:#181818;stroke-width:1.0;"/><path d="M253.0156,18.875 Q253.1719,18.6563 253.3594,18.5469 Q253.5469,18.4375 253.7656,18.4375 Q254.1406,18.4375 254.375,18.6953 Q254.6094,18.9531 254.6094,19.5625 L254.6094,21.0156 Q254.6094,21.625 254.375,21.8906 Q254.1406,22.1563 253.7656,22.1563 Q253.4219,22.1563 253.2188,21.9531 Q253.0156,21.7656 252.9063,21.25 Q252.8594,20.8906 252.6719,20.7031 Q252.3438,20.3281 251.7344,20.1094 Q251.125,19.8906 250.5,19.8906 Q249.7344,19.8906 249.1016,20.2188 Q248.4688,20.5469 247.9766,21.2969 Q247.4844,22.0469 247.4844,23.0781 L247.4844,24.1719 Q247.4844,25.4063 248.375,26.2266 Q249.2656,27.0469 250.8594,27.0469 Q251.7969,27.0469 252.4531,26.7969 Q252.8438,26.6406 253.2656,26.2031 Q253.5313,25.9375 253.6797,25.8594 Q253.8281,25.7813 254.0313,25.7813 Q254.3594,25.7813 254.6172,26.0391 Q254.875,26.2969 254.875,26.6406 Q254.875,26.9844 254.5313,27.3906 Q254.0313,27.9688 253.2344,28.2969 Q252.1563,28.75 250.8594,28.75 Q249.3438,28.75 248.1406,28.125 Q247.1563,27.625 246.4688,26.5547 Q245.7813,25.4844 245.7813,24.2031 L245.7813,23.0469 Q245.7813,21.7188 246.3984,20.5703 Q247.0156,19.4219 248.1094,18.8047 Q249.2031,18.1875 250.4375,18.1875 Q251.1719,18.1875 251.8203,18.3516 Q252.4688,18.5156 253.0156,18.875 Z " fill="#000000"/><text fill="#000000" font-family="sans-serif" font-size="14" lengthAdjust="spacing" textLength="29" x="270.75" y="28.7285">User</text><line style="stroke:#181818;stroke-width:0.5;" x1="195" x2="343" y1="39" y2="39"/><ellipse cx="205" cy="53.3047" fill="none" rx="3" ry="3" style="stroke:#038048;stroke-width:1.0;"/><text fill="#000000" font-family="sans-serif" font-size="14" lengthAdjust="spacing" textLength="79" x="214" y="57.5332">_id: ObjectId</text><ellipse cx="205" cy="70.9141" fill="none" rx="3" ry="3" style="stroke:#038048;stroke-width:1.0;"/><text fill="#000000" font-family="sans-serif" font-size="14" lengthAdjust="spacing" textLength="80" x="214" y="75.1426">name: String</text><ellipse cx="205" cy="88.5234" fill="none" rx="3" ry="3" style="stroke:#038048;stroke-width:1.0;"/><text fill="#000000" font-family="sans-serif" font-size="14" lengthAdjust="spacing" textLength="78" x="214" y="92.752">email: String</text><ellipse cx="205" cy="106.1328" fill="none" rx="3" ry="3" style="stroke:#038048;stroke-width:1.0;"/><text fill="#000000" font-family="sans-serif" font-size="14" lengthAdjust="spacing" textLength="105" x="214" y="110.3613">password: String</text><ellipse cx="205" cy="123.7422" fill="none" rx="3" ry="3" style="stroke:#038048;stroke-width:1.0;"/><text fill="#000000" font-family="sans-serif" font-size="14" lengthAdjust="spacing" textLength="69" x="214" y="127.9707">role: String</text><ellipse cx="205" cy="141.3516" fill="none" rx="3" ry="3" style="stroke:#038048;stroke-width:1.0;"/><text fill="#000000" font-family="sans-serif" font-size="14" lengthAdjust="spacing" textLength="85" x="214" y="145.5801">avatar: String</text><ellipse cx="205" cy="158.9609" fill="none" rx="3" ry="3" style="stroke:#038048;stroke-width:1.0;"/><text fill="#000000" font-family="sans-serif" font-size="14" lengthAdjust="spacing" textLength="96" x="214" y="163.1895">address: String</text><ellipse cx="205" cy="176.5703" fill="none" rx="3" ry="3" style="stroke:#038048;stroke-width:1.0;"/><text fill="#000000" font-family="sans-serif" font-size="14" lengthAdjust="spacing" textLength="85" x="214" y="180.7988">phone: String</text><ellipse cx="205" cy="194.1797" fill="none" rx="3" ry="3" style="stroke:#038048;stroke-width:1.0;"/><text fill="#000000" font-family="sans-serif" font-size="14" lengthAdjust="spacing" textLength="124" x="214" y="198.4082">favorites: [Property]</text><ellipse cx="205" cy="211.7891" fill="none" rx="3" ry="3" style="stroke:#038048;stroke-width:1.0;"/><text fill="#000000" font-family="sans-serif" font-size="14" lengthAdjust="spacing" textLength="95" x="214" y="216.0176">tokens: [String]</text><ellipse cx="205" cy="229.3984" fill="none" rx="3" ry="3" style="stroke:#038048;stroke-width:1.0;"/><text fill="#000000" font-family="sans-serif" font-size="14" lengthAdjust="spacing" textLength="99" x="214" y="233.627">createdAt: Date</text><line style="stroke:#181818;stroke-width:0.5;" x1="195" x2="343" y1="240.7031" y2="240.7031"/></g><!--class Property--><g id="elem_Property"><rect codeLine="17" fill="#F1F1F1" height="382.5781" id="Property" rx="2.5" ry="2.5" style="stroke:#181818;stroke-width:0.5;" width="150" x="7" y="327"/><ellipse cx="50.8" cy="343" fill="#ADD1B2" rx="11" ry="11" style="stroke:#181818;stroke-width:1.0;"/><path d="M53.5656,338.875 Q53.7219,338.6563 53.9094,338.5469 Q54.0969,338.4375 54.3156,338.4375 Q54.6906,338.4375 54.925,338.6953 Q55.1594,338.9531 55.1594,339.5625 L55.1594,341.0156 Q55.1594,341.625 54.925,341.8906 Q54.6906,342.1563 54.3156,342.1563 Q53.9719,342.1563 53.7688,341.9531 Q53.5656,341.7656 53.4563,341.25 Q53.4094,340.8906 53.2219,340.7031 Q52.8938,340.3281 52.2844,340.1094 Q51.675,339.8906 51.05,339.8906 Q50.2844,339.8906 49.6516,340.2188 Q49.0188,340.5469 48.5266,341.2969 Q48.0344,342.0469 48.0344,343.0781 L48.0344,344.1719 Q48.0344,345.4063 48.925,346.2266 Q49.8156,347.0469 51.4094,347.0469 Q52.3469,347.0469 53.0031,346.7969 Q53.3938,346.6406 53.8156,346.2031 Q54.0813,345.9375 54.2297,345.8594 Q54.3781,345.7813 54.5813,345.7813 Q54.9094,345.7813 55.1672,346.0391 Q55.425,346.2969 55.425,346.6406 Q55.425,346.9844 55.0813,347.3906 Q54.5813,347.9688 53.7844,348.2969 Q52.7063,348.75 51.4094,348.75 Q49.8938,348.75 48.6906,348.125 Q47.7063,347.625 47.0188,346.5547 Q46.3313,345.4844 46.3313,344.2031 L46.3313,343.0469 Q46.3313,341.7188 46.9484,340.5703 Q47.5656,339.4219 48.6594,338.8047 Q49.7531,338.1875 50.9875,338.1875 Q51.7219,338.1875 52.3703,338.3516 Q53.0188,338.5156 53.5656,338.875 Z " fill="#000000"/><text fill="#000000" font-family="sans-serif" font-size="14" lengthAdjust="spacing" textLength="54" x="71.2" y="348.7285">Property</text><line style="stroke:#181818;stroke-width:0.5;" x1="8" x2="156" y1="359" y2="359"/><ellipse cx="18" cy="373.3047" fill="none" rx="3" ry="3" style="stroke:#038048;stroke-width:1.0;"/><text fill="#000000" font-family="sans-serif" font-size="14" lengthAdjust="spacing" textLength="79" x="27" y="377.5332">_id: ObjectId</text><ellipse cx="18" cy="390.9141" fill="none" rx="3" ry="3" style="stroke:#038048;stroke-width:1.0;"/><text fill="#000000" font-family="sans-serif" font-size="14" lengthAdjust="spacing" textLength="67" x="27" y="395.1426">title: String</text><ellipse cx="18" cy="408.5234" fill="none" rx="3" ry="3" style="stroke:#038048;stroke-width:1.0;"/><text fill="#000000" font-family="sans-serif" font-size="14" lengthAdjust="spacing" textLength="114" x="27" y="412.752">description: String</text><ellipse cx="18" cy="426.1328" fill="none" rx="3" ry="3" style="stroke:#038048;stroke-width:1.0;"/><text fill="#000000" font-family="sans-serif" font-size="14" lengthAdjust="spacing" textLength="88" x="27" y="430.3613">price: Number</text><ellipse cx="18" cy="443.7422" fill="none" rx="3" ry="3" style="stroke:#038048;stroke-width:1.0;"/><text fill="#000000" font-family="sans-serif" font-size="14" lengthAdjust="spacing" textLength="94" x="27" y="447.9707">location: String</text><ellipse cx="18" cy="461.3516" fill="none" rx="3" ry="3" style="stroke:#038048;stroke-width:1.0;"/><text fill="#000000" font-family="sans-serif" font-size="14" lengthAdjust="spacing" textLength="72" x="27" y="465.5801">type: String</text><ellipse cx="18" cy="478.9609" fill="none" rx="3" ry="3" style="stroke:#038048;stroke-width:1.0;"/><text fill="#000000" font-family="sans-serif" font-size="14" lengthAdjust="spacing" textLength="104" x="27" y="483.1895">surface: Number</text><ellipse cx="18" cy="496.5703" fill="none" rx="3" ry="3" style="stroke:#038048;stroke-width:1.0;"/><text fill="#000000" font-family="sans-serif" font-size="14" lengthAdjust="spacing" textLength="96" x="27" y="500.7988">rooms: Number</text><ellipse cx="18" cy="514.1797" fill="none" rx="3" ry="3" style="stroke:#038048;stroke-width:1.0;"/><text fill="#000000" font-family="sans-serif" font-size="14" lengthAdjust="spacing" textLength="120" x="27" y="518.4082">bedrooms: Number</text><ellipse cx="18" cy="531.7891" fill="none" rx="3" ry="3" style="stroke:#038048;stroke-width:1.0;"/><text fill="#000000" font-family="sans-serif" font-size="14" lengthAdjust="spacing" textLength="124" x="27" y="536.0176">bathrooms: Number</text><ellipse cx="18" cy="549.3984" fill="none" rx="3" ry="3" style="stroke:#038048;stroke-width:1.0;"/><text fill="#000000" font-family="sans-serif" font-size="14" lengthAdjust="spacing" textLength="105" x="27" y="553.627">garage: Boolean</text><ellipse cx="18" cy="567.0078" fill="none" rx="3" ry="3" style="stroke:#038048;stroke-width:1.0;"/><text fill="#000000" font-family="sans-serif" font-size="14" lengthAdjust="spacing" textLength="105" x="27" y="571.2363">garden: Boolean</text><ellipse cx="18" cy="584.6172" fill="none" rx="3" ry="3" style="stroke:#038048;stroke-width:1.0;"/><text fill="#000000" font-family="sans-serif" font-size="14" lengthAdjust="spacing" textLength="112" x="27" y="588.8457">yearBuilt: Number</text><ellipse cx="18" cy="602.2266" fill="none" rx="3" ry="3" style="stroke:#038048;stroke-width:1.0;"/><text fill="#000000" font-family="sans-serif" font-size="14" lengthAdjust="spacing" textLength="98" x="27" y="606.4551">isSold: Boolean</text><ellipse cx="18" cy="619.8359" fill="none" rx="3" ry="3" style="stroke:#038048;stroke-width:1.0;"/><text fill="#000000" font-family="sans-serif" font-size="14" lengthAdjust="spacing" textLength="117" x="27" y="624.0645">validated: Boolean</text><ellipse cx="18" cy="637.4453" fill="none" rx="3" ry="3" style="stroke:#038048;stroke-width:1.0;"/><text fill="#000000" font-family="sans-serif" font-size="14" lengthAdjust="spacing" textLength="98" x="27" y="641.6738">images: [String]</text><ellipse cx="18" cy="655.0547" fill="none" rx="3" ry="3" style="stroke:#038048;stroke-width:1.0;"/><text fill="#000000" font-family="sans-serif" font-size="14" lengthAdjust="spacing" textLength="106" x="27" y="659.2832">thumbnail: String</text><ellipse cx="18" cy="672.6641" fill="none" rx="3" ry="3" style="stroke:#038048;stroke-width:1.0;"/><text fill="#000000" font-family="sans-serif" font-size="14" lengthAdjust="spacing" textLength="75" x="27" y="676.8926">owner: User</text><ellipse cx="18" cy="690.2734" fill="none" rx="3" ry="3" style="stroke:#038048;stroke-width:1.0;"/><text fill="#000000" font-family="sans-serif" font-size="14" lengthAdjust="spacing" textLength="99" x="27" y="694.502">createdAt: Date</text><line style="stroke:#181818;stroke-width:0.5;" x1="8" x2="156" y1="701.5781" y2="701.5781"/></g><!--class Log--><g id="elem_Log"><rect codeLine="39" fill="#F1F1F1" height="136.0469" id="Log" rx="2.5" ry="2.5" style="stroke:#181818;stroke-width:0.5;" width="134" x="205" y="450.5"/><ellipse cx="255.75" cy="466.5" fill="#ADD1B2" rx="11" ry="11" style="stroke:#181818;stroke-width:1.0;"/><path d="M258.5156,462.375 Q258.6719,462.1563 258.8594,462.0469 Q259.0469,461.9375 259.2656,461.9375 Q259.6406,461.9375 259.875,462.1953 Q260.1094,462.4531 260.1094,463.0625 L260.1094,464.5156 Q260.1094,465.125 259.875,465.3906 Q259.6406,465.6563 259.2656,465.6563 Q258.9219,465.6563 258.7188,465.4531 Q258.5156,465.2656 258.4063,464.75 Q258.3594,464.3906 258.1719,464.2031 Q257.8438,463.8281 257.2344,463.6094 Q256.625,463.3906 256,463.3906 Q255.2344,463.3906 254.6016,463.7188 Q253.9688,464.0469 253.4766,464.7969 Q252.9844,465.5469 252.9844,466.5781 L252.9844,467.6719 Q252.9844,468.9063 253.875,469.7266 Q254.7656,470.5469 256.3594,470.5469 Q257.2969,470.5469 257.9531,470.2969 Q258.3438,470.1406 258.7656,469.7031 Q259.0313,469.4375 259.1797,469.3594 Q259.3281,469.2813 259.5313,469.2813 Q259.8594,469.2813 260.1172,469.5391 Q260.375,469.7969 260.375,470.1406 Q260.375,470.4844 260.0313,470.8906 Q259.5313,471.4688 258.7344,471.7969 Q257.6563,472.25 256.3594,472.25 Q254.8438,472.25 253.6406,471.625 Q252.6563,471.125 251.9688,470.0547 Q251.2813,468.9844 251.2813,467.7031 L251.2813,466.5469 Q251.2813,465.2188 251.8984,464.0703 Q252.5156,462.9219 253.6094,462.3047 Q254.7031,461.6875 255.9375,461.6875 Q256.6719,461.6875 257.3203,461.8516 Q257.9688,462.0156 258.5156,462.375 Z " fill="#000000"/><text fill="#000000" font-family="sans-serif" font-size="14" lengthAdjust="spacing" textLength="24" x="276.25" y="472.2285">Log</text><line style="stroke:#181818;stroke-width:0.5;" x1="206" x2="338" y1="482.5" y2="482.5"/><ellipse cx="216" cy="496.8047" fill="none" rx="3" ry="3" style="stroke:#038048;stroke-width:1.0;"/><text fill="#000000" font-family="sans-serif" font-size="14" lengthAdjust="spacing" textLength="79" x="225" y="501.0332">_id: ObjectId</text><ellipse cx="216" cy="514.4141" fill="none" rx="3" ry="3" style="stroke:#038048;stroke-width:1.0;"/><text fill="#000000" font-family="sans-serif" font-size="14" lengthAdjust="spacing" textLength="65" x="225" y="518.6426">user: User</text><ellipse cx="216" cy="532.0234" fill="none" rx="3" ry="3" style="stroke:#038048;stroke-width:1.0;"/><text fill="#000000" font-family="sans-serif" font-size="14" lengthAdjust="spacing" textLength="83" x="225" y="536.252">action: String</text><ellipse cx="216" cy="549.6328" fill="none" rx="3" ry="3" style="stroke:#038048;stroke-width:1.0;"/><text fill="#000000" font-family="sans-serif" font-size="14" lengthAdjust="spacing" textLength="108" x="225" y="553.8613">ipAddress: String</text><ellipse cx="216" cy="567.2422" fill="none" rx="3" ry="3" style="stroke:#038048;stroke-width:1.0;"/><text fill="#000000" font-family="sans-serif" font-size="14" lengthAdjust="spacing" textLength="99" x="225" y="571.4707">createdAt: Date</text><line style="stroke:#181818;stroke-width:0.5;" x1="206" x2="338" y1="578.5469" y2="578.5469"/></g><!--class EmailVerificationCode--><g id="elem_EmailVerificationCode"><rect codeLine="47" fill="#F1F1F1" height="118.4375" id="EmailVerificationCode" rx="2.5" ry="2.5" style="stroke:#181818;stroke-width:0.5;" width="170" x="378" y="459.5"/><ellipse cx="393" cy="475.5" fill="#ADD1B2" rx="11" ry="11" style="stroke:#181818;stroke-width:1.0;"/><path d="M395.7656,471.375 Q395.9219,471.1563 396.1094,471.0469 Q396.2969,470.9375 396.5156,470.9375 Q396.8906,470.9375 397.125,471.1953 Q397.3594,471.4531 397.3594,472.0625 L397.3594,473.5156 Q397.3594,474.125 397.125,474.3906 Q396.8906,474.6563 396.5156,474.6563 Q396.1719,474.6563 395.9688,474.4531 Q395.7656,474.2656 395.6563,473.75 Q395.6094,473.3906 395.4219,473.2031 Q395.0938,472.8281 394.4844,472.6094 Q393.875,472.3906 393.25,472.3906 Q392.4844,472.3906 391.8516,472.7188 Q391.2188,473.0469 390.7266,473.7969 Q390.2344,474.5469 390.2344,475.5781 L390.2344,476.6719 Q390.2344,477.9063 391.125,478.7266 Q392.0156,479.5469 393.6094,479.5469 Q394.5469,479.5469 395.2031,479.2969 Q395.5938,479.1406 396.0156,478.7031 Q396.2813,478.4375 396.4297,478.3594 Q396.5781,478.2813 396.7813,478.2813 Q397.1094,478.2813 397.3672,478.5391 Q397.625,478.7969 397.625,479.1406 Q397.625,479.4844 397.2813,479.8906 Q396.7813,480.4688 395.9844,480.7969 Q394.9063,481.25 393.6094,481.25 Q392.0938,481.25 390.8906,480.625 Q389.9063,480.125 389.2188,479.0547 Q388.5313,477.9844 388.5313,476.7031 L388.5313,475.5469 Q388.5313,474.2188 389.1484,473.0703 Q389.7656,471.9219 390.8594,471.3047 Q391.9531,470.6875 393.1875,470.6875 Q393.9219,470.6875 394.5703,470.8516 Q395.2188,471.0156 395.7656,471.375 Z " fill="#000000"/><text fill="#000000" font-family="sans-serif" font-size="14" lengthAdjust="spacing" textLength="138" x="407" y="481.2285">EmailVerificationCode</text><line style="stroke:#181818;stroke-width:0.5;" x1="379" x2="547" y1="491.5" y2="491.5"/><ellipse cx="389" cy="505.8047" fill="none" rx="3" ry="3" style="stroke:#038048;stroke-width:1.0;"/><text fill="#000000" font-family="sans-serif" font-size="14" lengthAdjust="spacing" textLength="79" x="398" y="510.0332">_id: ObjectId</text><ellipse cx="389" cy="523.4141" fill="none" rx="3" ry="3" style="stroke:#038048;stroke-width:1.0;"/><text fill="#000000" font-family="sans-serif" font-size="14" lengthAdjust="spacing" textLength="78" x="398" y="527.6426">email: String</text><ellipse cx="389" cy="541.0234" fill="none" rx="3" ry="3" style="stroke:#038048;stroke-width:1.0;"/><text fill="#000000" font-family="sans-serif" font-size="14" lengthAdjust="spacing" textLength="76" x="398" y="545.252">code: String</text><ellipse cx="389" cy="558.6328" fill="none" rx="3" ry="3" style="stroke:#038048;stroke-width:1.0;"/><text fill="#000000" font-family="sans-serif" font-size="14" lengthAdjust="spacing" textLength="96" x="398" y="562.8613">expiresAt: Date</text><line style="stroke:#181818;stroke-width:0.5;" x1="379" x2="547" y1="569.9375" y2="569.9375"/></g><!--link User to Property--><g id="link_User_Property"><path codeLine="56" d="M193.75,163.29 C148.59,188.32 95.01,226.98 69,279 C61.49,294.02 56.68,310.26 53.91,326.95 " fill="none" id="User-Property" style="stroke:#181818;stroke-width:1.0;"/><text fill="#000000" font-family="sans-serif" font-size="13" lengthAdjust="spacing" textLength="49" x="70" y="293.4951">poss&#232;de</text><text fill="#000000" font-family="sans-serif" font-size="13" lengthAdjust="spacing" textLength="7" x="178.998" y="163.5034">1</text><text fill="#000000" font-family="sans-serif" font-size="13" lengthAdjust="spacing" textLength="20" x="32.3031" y="316.0429">0..*</text></g><!--link Property to User--><g id="link_Property_User"><path codeLine="57" d="M157.01,350.52 C168.21,326.43 179.77,302.01 191,279 C195.76,269.24 198.0734,264.5248 203.1734,254.4348 " fill="none" id="Property-to-User" style="stroke:#181818;stroke-width:1.0;"/><polygon fill="#181818" points="205.88,249.08,198.2502,255.3079,203.6245,253.5424,205.39,258.9167,205.88,249.08" style="stroke:#181818;stroke-width:1.0;"/><text fill="#000000" font-family="sans-serif" font-size="13" lengthAdjust="spacing" textLength="64" x="192" y="293.4951">propri&#233;taire</text><text fill="#000000" font-family="sans-serif" font-size="13" lengthAdjust="spacing" textLength="7" x="165.1063" y="329.9071">1</text><text fill="#000000" font-family="sans-serif" font-size="13" lengthAdjust="spacing" textLength="7" x="195.0285" y="270.0563">1</text></g><!--link User to Log--><g id="link_User_Log"><path codeLine="58" d="M266.38,249.35 C266.23,259.38 266.1,269.36 266,279 C265.42,336.88 267.26,402.64 269.05,450.43 " fill="none" id="User-Log" style="stroke:#181818;stroke-width:1.0;"/><text fill="#000000" font-family="sans-serif" font-size="13" lengthAdjust="spacing" textLength="45" x="267" y="293.4951">effectue</text><text fill="#000000" font-family="sans-serif" font-size="13" lengthAdjust="spacing" textLength="7" x="259.0262" y="270.3419">1</text><text fill="#000000" font-family="sans-serif" font-size="13" lengthAdjust="spacing" textLength="20" x="247.6336" y="439.6216">0..*</text></g><!--link Log to User--><g id="link_Log_User"><path codeLine="59" d="M297.11,450.36 C311.89,402.68 326.07,337.08 317,279 C315.48,269.27 314.8385,265.1548 312.4585,255.2248 " fill="none" id="Log-to-User" style="stroke:#181818;stroke-width:1.0;"/><polygon fill="#181818" points="311.06,249.39,309.2679,259.0744,312.2254,254.2523,317.0475,257.2098,311.06,249.39" style="stroke:#181818;stroke-width:1.0;"/><text fill="#000000" font-family="sans-serif" font-size="13" lengthAdjust="spacing" textLength="65" x="319" y="293.4951">r&#233;alis&#233;ePar</text><text fill="#000000" font-family="sans-serif" font-size="13" lengthAdjust="spacing" textLength="22" x="276.6533" y="439.544">0..1</text><text fill="#000000" font-family="sans-serif" font-size="13" lengthAdjust="spacing" textLength="7" x="306.2893" y="270.3842">1</text></g><!--link User to EmailVerificationCode--><g id="link_User_EmailVerificationCode"><path codeLine="60" d="M344.01,207.59 C361.98,229.46 379.77,254.08 393,279 C423.56,336.55 442.42,409.19 452.75,459.09 " fill="none" id="User-EmailVerificationCode" style="stroke:#181818;stroke-width:1.0;"/><text fill="#000000" font-family="sans-serif" font-size="13" lengthAdjust="spacing" textLength="32" x="402" y="293.4951">re&#231;oit</text><text fill="#000000" font-family="sans-serif" font-size="13" lengthAdjust="spacing" textLength="22" x="351.939" y="211.7147">0..1</text><text fill="#000000" font-family="sans-serif" font-size="13" lengthAdjust="spacing" textLength="20" x="430.4086" y="448.7859">0..*</text></g><!--SRC=[XLF1RjH03BtdAqPxgGHg1TSSa5hA0Gb1HGKNX90tu-mQad7aSRQi4Dy3-Oxy6Cwcsv99M799ykRvsVDidxdhlYifa187vp4w34hQTp7BYWfYT1yYYlkHENkUVY6VktVhhrZeQpz20MhCtQqAXSs8O0rKJQ76XEvO_1GLhf9Gs86299ZtWZ4cWbiEIMm9EnPIDEQd6-46HVUVnoFbRnW6VEJVeuKWAFfBpTsrVMG_ZpS-Hf-ujLcKrcxU5KBDu6DIgr1XtBTjlKOPeOeBc1DrtoIQiPKIqc1XhkCKMgDVGa6t2_0613QcUSNcFuG7q6D8m3s2NBLKwLI0uYrNFk7ke28_-9dWL5kocVUwDRqmcnE-2sZj7qRkFprwmviJxMdZL0QAkTlKN2vDrZyplXh6-YCAbJGsxoLxF573mXeK5f7iolU6h8Q_ivsvzrWT4jWA7fPlzNpbpi_Twjd5nPFLutJchk4O-zyUimTifBuul0-nHh8peRvJi4nBWeELkSEojE9Rp8RVuMIk97rdJOvzXpSWzqf7ub5isIMBnVuNa_u1]--></g></svg>